<svg xmlns="http://www.w3.org/2000/svg" xmlns:xlink="http://www.w3.org/1999/xlink" width="249.382" height="80.67" viewBox="0 0 249.382 80.67">
  <defs>
    <clipPath id="clip-path">
      <path id="Clip_4" data-name="Clip 4" d="M0,0H84.882V80.67H0Z" transform="translate(0 0.13)" fill="none"/>
    </clipPath>
  </defs>
  <g id="inlineLogo" transform="translate(41.5 -132.13)">
    <g id="Group_14" data-name="Group 14" transform="translate(123 132)">
      <path id="Fill_1" data-name="Fill 1" d="M67.757,32h-31.9a1.233,1.233,0,0,1-1.24-1.223V24.115a1.233,1.233,0,0,0-1.239-1.223H31.429a1.233,1.233,0,0,0-1.24,1.223v6.662A1.233,1.233,0,0,1,28.949,32H1.243a1.215,1.215,0,0,1-1.162-.8,1.188,1.188,0,0,1,.333-1.337L33.775.313a1.253,1.253,0,0,1,1.66,0L68.589,29.87a1.189,1.189,0,0,1,.329,1.337A1.215,1.215,0,0,1,67.757,32Zm-28.5-11.691a4.7,4.7,0,0,1,.505.027,8.311,8.311,0,0,1,4.73,2.6.221.221,0,0,0,.155.063.257.257,0,0,0,.165-.063c.973-.82.164-2.067-.426-2.978-.071-.109-.137-.212-.2-.308-.114-.184-.226-.369-.344-.565-.791-1.312-1.686-2.8-3.165-3.42a9.01,9.01,0,0,0-3.361-.494c-.42,0-.846.01-1.221.02H36.07c-.4.009-.777.018-1.145.018-.211,0-.4,0-.572-.009-.382-.014-.691-.02-.972-.02a10.909,10.909,0,0,0-2.023.161,5.312,5.312,0,0,0-1.437.551,7.03,7.03,0,0,1-.986.434,1.311,1.311,0,0,1-.406.063,3.162,3.162,0,0,1-1.324-.428l-.005,0a3.149,3.149,0,0,0-1.307-.425,1.369,1.369,0,0,0-.933.384,2.033,2.033,0,0,0-.528,1.327l0,.013a12.362,12.362,0,0,0-.069,3.456c.131.725.543,1.141,1.132,1.141a1.693,1.693,0,0,0,.712-.177,2.432,2.432,0,0,0,.625-.506,1.57,1.57,0,0,1,1-.61.773.773,0,0,1,.129.011,3.129,3.129,0,0,1,1.557,1.183,5.558,5.558,0,0,0,.667.68l.336-.008c.745-.019,1.515-.038,2.273-.038.688,0,1.293.016,1.848.049,0-.005,0-.011,0-.017s0-.012,0-.017A7.05,7.05,0,0,1,39.255,20.309Z" transform="translate(8 7)" fill="#fec516"/>
      <g id="Group_5" data-name="Group 5">
        <path id="Clip_4-2" data-name="Clip 4" d="M0,0H84.882V80.67H0Z" transform="translate(0 0.13)" fill="none"/>
        <g id="Group_5-2" data-name="Group 5" clip-path="url(#clip-path)">
          <path id="Fill_3" data-name="Fill 3" d="M82.889,34.633,46.539,1.593a6.068,6.068,0,0,0-8.2,0L1.993,34.633a6.067,6.067,0,0,0,4.1,10.556H9.339a.627.627,0,0,1,.628.626V67.01a.627.627,0,0,0,.628.626H42.441v-.09h.01V39.722a.627.627,0,0,0-.628-.626H38.634a.627.627,0,0,0-.628.626V63.159a.627.627,0,0,1-.628.626H14.455a.627.627,0,0,1-.628-.626V42.583a1.246,1.246,0,0,0-1.247-1.244H6.171a2.294,2.294,0,0,1-2.161-1.431,2.2,2.2,0,0,1,.582-2.428L40.943,4.439a2.219,2.219,0,0,1,3,0l36.35,33.04a2.218,2.218,0,0,1-1.5,3.859H72.3a1.243,1.243,0,0,0-1.245,1.242V76.193a.627.627,0,0,1-.628.626H44.9l-33.848-.17A1.247,1.247,0,0,0,9.8,77.889l-.007,1.359A1.248,1.248,0,0,0,11.032,80.5l33.857.17h25.7a4.319,4.319,0,0,0,4.324-4.313V45.816a.627.627,0,0,1,.628-.626h3.249a6.067,6.067,0,0,0,4.1-10.556" transform="translate(0 0.13)" fill="#fec516"/>
        </g>
      </g>
      <path id="Fill_6" data-name="Fill 6" d="M.5,0A.5.5,0,0,0,.147.854a.5.5,0,0,0,.707,0A.5.5,0,0,0,.5,0" transform="translate(58 52)" fill="#fec516"/>
      <path id="Fill_8" data-name="Fill 8" d="M22.761,26H1.238A1.253,1.253,0,0,1,0,24.736V1.265A1.253,1.253,0,0,1,1.238,0H22.761A1.254,1.254,0,0,1,24,1.265V24.736A1.253,1.253,0,0,1,22.761,26ZM19.568,4.352c-1.135,0-2.715.749-4.567,2.165A27.279,27.279,0,0,0,12.393,8.8l0,0a.6.6,0,0,0-.15.287.852.852,0,0,0,.03.391c.013.054.027.108.04.162.038.152.077.308.1.465a5.88,5.88,0,0,1,.057,1.516,7.5,7.5,0,0,1-.263,1.48,9.585,9.585,0,0,1-.546,1.42A20.477,20.477,0,0,1,10.1,17.193c-.352.528-.731,1.047-1.1,1.55-.2.275-.408.558-.608.84a1.7,1.7,0,0,0-.245.443,1.273,1.273,0,0,0-.054.551,1.238,1.238,0,0,0,.6.915,1.2,1.2,0,0,0,1.211-.014,2.233,2.233,0,0,0,.362-.3l.066-.063c.2-.191.411-.4.632-.625a15.926,15.926,0,0,0,3.408-5.171A9.178,9.178,0,0,0,14.81,13.9l.974.554.271-.276-1.1-1.128a6.359,6.359,0,0,0,.012-1.268,1.335,1.335,0,0,0,.388-.233,6.319,6.319,0,0,1,.037,1.174l.037.01.029.008a1.131,1.131,0,0,0,.278.045.53.53,0,0,0,.126-.015.588.588,0,0,0,.3-.18c3.017-3.085,4.384-5.533,4.3-7.7l-2.09,2.132a3.136,3.136,0,0,1-.733,1.347,3.029,3.029,0,0,1-1.32.748l-.663.677a1.46,1.46,0,0,0-.172-.238l-.018-.02-.025-.027a1.4,1.4,0,0,0-.278-.218l.666-.679a3.129,3.129,0,0,1,.732-1.345,3.02,3.02,0,0,1,1.317-.746l2.092-2.135A2.31,2.31,0,0,0,19.568,4.352ZM10.517,8.525l-.271.276L11,10.184a11.182,11.182,0,0,0-2.608,1.049,14.783,14.783,0,0,0-2.569,1.784,17.533,17.533,0,0,0-1.982,1.95,1.265,1.265,0,0,0-.237,1.221A1.227,1.227,0,0,0,4.568,17a1.132,1.132,0,0,0,.171.013,1.35,1.35,0,0,0,.8-.3c.353-.257.7-.529,1.044-.791l.066-.051c.783-.6,1.629-1.192,2.515-1.754a11.443,11.443,0,0,1,2.691-1.292,7.307,7.307,0,0,0,.2-1.239,5.425,5.425,0,0,0-.051-1.408c-.009-.051-.02-.106-.034-.17h0L10.517,8.525Z" transform="translate(44 42)" fill="#fec516"/>
      <path id="Fill_10" data-name="Fill 10" d="M.536.536,0,2.536,1.464,4l2-.536.536-2L2.536,0Z" transform="translate(20 54)" fill="#fec516"/>
      <path id="Fill_12" data-name="Fill 12" d="M18.472,20H1.263A1.279,1.279,0,0,1,0,18.707V1.292A1.279,1.279,0,0,1,1.263,0H18.738a1.239,1.239,0,0,1,.888.374A1.3,1.3,0,0,1,20,1.313l-.265,17.414A1.282,1.282,0,0,1,18.472,20ZM6.018,10.1a3.81,3.81,0,0,0-2.745,1.164,4.051,4.051,0,0,0,0,5.625,3.82,3.82,0,0,0,5.493,0,4.067,4.067,0,0,0,.908-4.16l2.461-2.519a4.11,4.11,0,0,0,4.5-.951,4.331,4.331,0,0,0,1-4.416L15.332,7.205a.53.53,0,0,1-.763,0l-1.84-1.884a.563.563,0,0,1,0-.781l2.309-2.363A4.11,4.11,0,0,0,10.724,3.2,4.356,4.356,0,0,0,9.8,7.815L7.335,10.334A3.8,3.8,0,0,0,6.018,10.1Z" transform="translate(16 42)" fill="#fec516"/>
    </g>
    <text id="CerFix" transform="translate(33.5 188)" fill="#d6d5da" font-size="44" font-family="Montserrat-SemiBold, Montserrat" font-weight="600" letter-spacing="0.029em"><tspan x="-74.251" y="0">CerFix</tspan></text>
  </g>
</svg>
