<svg xmlns="http://www.w3.org/2000/svg" xmlns:xlink="http://www.w3.org/1999/xlink" width="268" height="339.999" viewBox="0 0 268 339.999">
  <defs>
    <clipPath id="clip-path">
      <path id="Clip_4" data-name="Clip 4" d="M0,0H223.012V211.947H0Z" fill="none"/>
    </clipPath>
  </defs>
  <g id="Group_3" data-name="Group 3" transform="translate(-135.5 -129.13)">
    <g id="Group_14" data-name="Group 14" transform="translate(158.832 129.13)">
      <path id="Fill_1" data-name="Fill 1" d="M178.023,84.075H94.21a3.24,3.24,0,0,1-3.258-3.213v-17.5A3.239,3.239,0,0,0,87.7,60.146H82.577a3.24,3.24,0,0,0-3.258,3.213v17.5a3.24,3.24,0,0,1-3.258,3.213H3.268A3.191,3.191,0,0,1,.215,81.986a3.123,3.123,0,0,1,.875-3.513L88.741.823A3.292,3.292,0,0,1,93.1.83l87.1,77.649a3.125,3.125,0,0,1,.866,3.512A3.192,3.192,0,0,1,178.023,84.075ZM103.138,53.359a12.351,12.351,0,0,1,1.328.072c5.232.57,9.219,3.768,12.428,6.822a.582.582,0,0,0,.407.166.676.676,0,0,0,.433-.166c2.556-2.155.431-5.431-1.121-7.823-.185-.286-.361-.556-.518-.81-.3-.483-.593-.969-.9-1.484-2.078-3.448-4.429-7.35-8.314-8.987-2.726-1.15-6.151-1.3-8.83-1.3-1.1,0-2.222.027-3.208.052l-.069,0c-1.051.025-2.042.048-3.008.048-.554,0-1.046-.008-1.5-.024-1-.036-1.815-.053-2.553-.053a28.662,28.662,0,0,0-5.316.424,13.957,13.957,0,0,0-3.776,1.447,18.47,18.47,0,0,1-2.59,1.14,3.445,3.445,0,0,1-1.066.167,8.307,8.307,0,0,1-3.479-1.124l-.014-.007a8.273,8.273,0,0,0-3.435-1.116,3.6,3.6,0,0,0-2.451,1.009A5.342,5.342,0,0,0,64.192,45.3l0,.033a32.478,32.478,0,0,0-.182,9.08c.343,1.906,1.427,3,2.973,3a4.447,4.447,0,0,0,1.87-.466,6.389,6.389,0,0,0,1.643-1.328,4.125,4.125,0,0,1,2.637-1.6,2.031,2.031,0,0,1,.34.029c1.588.27,2.917,1.777,4.09,3.107a14.6,14.6,0,0,0,1.753,1.788l.882-.022c1.957-.049,3.982-.1,5.971-.1,1.809,0,3.4.042,4.854.128,0-.014,0-.029,0-.044s0-.03,0-.046C95.106,55.209,99.183,53.359,103.138,53.359Z" transform="translate(21.016 18.049)" fill="#fec516"/>
      <g id="Group_5" data-name="Group 5" transform="translate(0 0)">
        <path id="Clip_4-2" data-name="Clip 4" d="M0,0H223.012V211.947H0Z" fill="none"/>
        <g id="Group_5-2" data-name="Group 5" clip-path="url(#clip-path)">
          <path id="Fill_3" data-name="Fill 3" d="M217.776,90.993l-95.5-86.807a15.943,15.943,0,0,0-21.535,0L5.236,90.993A15.941,15.941,0,0,0,16,118.727h8.533a1.648,1.648,0,0,1,1.65,1.646v55.683a1.647,1.647,0,0,0,1.649,1.646h83.67v-.236h.027v-73.1a1.647,1.647,0,0,0-1.649-1.646H101.5a1.648,1.648,0,0,0-1.65,1.646v61.576a1.647,1.647,0,0,1-1.65,1.646H37.977a1.648,1.648,0,0,1-1.65-1.646V111.878a3.273,3.273,0,0,0-3.276-3.268H16.214a6.028,6.028,0,0,1-5.677-3.76,5.784,5.784,0,0,1,1.529-6.379l95.5-86.809a5.829,5.829,0,0,1,7.873,0l95.5,86.807a5.827,5.827,0,0,1-3.934,10.14H189.954a3.266,3.266,0,0,0-3.271,3.262v88.312a1.648,1.648,0,0,1-1.65,1.646H117.964l-88.929-.446a3.276,3.276,0,0,0-3.3,3.255l-.019,3.57a3.278,3.278,0,0,0,3.266,3.291l88.952.447h67.528a11.347,11.347,0,0,0,11.36-11.332V120.373a1.648,1.648,0,0,1,1.65-1.646h8.536a15.94,15.94,0,0,0,10.765-27.733" transform="translate(0 0)" fill="#fec516"/>
        </g>
      </g>
      <path id="Fill_6" data-name="Fill 6" d="M1.314,0A1.314,1.314,0,0,0,.385,2.243a1.314,1.314,0,0,0,1.857,0A1.313,1.313,0,0,0,1.314,0" transform="translate(152.385 136.279)" fill="#fec516"/>
      <path id="Fill_8" data-name="Fill 8" d="M59.8,68.311H3.254A3.291,3.291,0,0,1,0,64.991V3.322A3.292,3.292,0,0,1,3.254,0H59.8a3.293,3.293,0,0,1,3.256,3.322V64.991A3.292,3.292,0,0,1,59.8,68.311Zm-8.39-56.878c-2.983,0-7.132,1.967-12,5.689a71.672,71.672,0,0,0-6.851,5.995l-.011.011a1.578,1.578,0,0,0-.4.754,2.239,2.239,0,0,0,.078,1.026c.034.143.07.285.106.427.1.4.2.809.275,1.221a15.449,15.449,0,0,1,.149,3.982,19.7,19.7,0,0,1-.69,3.89,25.183,25.183,0,0,1-1.435,3.731,53.8,53.8,0,0,1-4.11,7.011c-.924,1.386-1.922,2.752-2.886,4.072-.528.723-1.072,1.467-1.6,2.206a4.465,4.465,0,0,0-.643,1.163,3.346,3.346,0,0,0-.142,1.447,3.253,3.253,0,0,0,1.584,2.4,3.144,3.144,0,0,0,3.183-.038,5.868,5.868,0,0,0,.951-.784l.174-.164c.537-.5,1.08-1.038,1.66-1.641A41.843,41.843,0,0,0,37.765,40.25a24.113,24.113,0,0,0,1.147-3.729l2.559,1.454.712-.726-2.9-2.963a16.708,16.708,0,0,0,.031-3.332,3.507,3.507,0,0,0,1.019-.612,16.6,16.6,0,0,1,.1,3.083l.1.025.075.02a2.97,2.97,0,0,0,.73.119,1.392,1.392,0,0,0,.331-.038,1.545,1.545,0,0,0,.778-.473c7.926-8.1,11.519-14.536,11.307-20.241l-5.491,5.6a8.239,8.239,0,0,1-1.925,3.54,7.958,7.958,0,0,1-3.469,1.965L41.12,25.722a3.836,3.836,0,0,0-.452-.624l-.046-.052c-.021-.024-.042-.048-.065-.071a3.686,3.686,0,0,0-.731-.572l1.75-1.783A8.221,8.221,0,0,1,43.5,19.087a7.935,7.935,0,0,1,3.459-1.96l5.5-5.609A6.068,6.068,0,0,0,51.411,11.433ZM27.63,22.4l-.712.726L28.9,26.758a29.38,29.38,0,0,0-6.853,2.755A38.841,38.841,0,0,0,15.3,34.2a46.065,46.065,0,0,0-5.207,5.124,3.323,3.323,0,0,0-.622,3.209A3.223,3.223,0,0,0,12,44.667a2.973,2.973,0,0,0,.449.035,3.548,3.548,0,0,0,2.105-.779c.927-.676,1.851-1.389,2.744-2.079l.174-.134c2.057-1.582,4.28-3.133,6.607-4.609a30.065,30.065,0,0,1,7.07-3.4,19.2,19.2,0,0,0,.537-3.256,14.253,14.253,0,0,0-.135-3.7c-.023-.133-.053-.28-.09-.447h-.012L27.63,22.4Z" transform="translate(115.602 110.005)" fill="#fec516"/>
      <path id="Fill_10" data-name="Fill 10" d="M1.408,1.408,0,6.663l3.846,3.846L9.1,9.1l1.408-5.255L6.663,0Z" transform="translate(52.547 141.533)" fill="#fec516"/>
      <path id="Fill_12" data-name="Fill 12" d="M48.533,52.546H3.318A3.361,3.361,0,0,1,0,49.15V3.4A3.361,3.361,0,0,1,3.318,0H49.231a3.255,3.255,0,0,1,2.333.983,3.413,3.413,0,0,1,.982,2.466l-.7,45.753A3.367,3.367,0,0,1,48.533,52.546ZM15.812,26.535A10.009,10.009,0,0,0,8.6,29.593a10.643,10.643,0,0,0,0,14.779,10.037,10.037,0,0,0,14.431,0,10.686,10.686,0,0,0,2.386-10.929l6.465-6.618a10.8,10.8,0,0,0,11.835-2.5,11.379,11.379,0,0,0,2.627-11.6l-6.063,6.209a1.394,1.394,0,0,1-2.005,0l-4.833-4.949a1.479,1.479,0,0,1,0-2.052L39.508,5.72A10.8,10.8,0,0,0,28.176,8.411a11.445,11.445,0,0,0-2.44,12.121L19.271,27.15A9.99,9.99,0,0,0,15.812,26.535Z" transform="translate(42.037 110.005)" fill="#fec516"/>
    </g>
    <text id="CerFix" transform="translate(269.5 449.129)" fill="#d6d5da" font-size="79" font-family="Montserrat-SemiBold, Montserrat" font-weight="600" letter-spacing="0.029em"><tspan x="-133.315" y="0">CerFix</tspan></text>
  </g>
</svg>
